<svg version="1.1" viewBox="0.0 0.0 67.1994750656168 57.6010498687664" fill="none" stroke="none" stroke-linecap="square" stroke-miterlimit="10" xmlns:xlink="http://www.w3.org/1999/xlink" xmlns="http://www.w3.org/2000/svg"><clipPath id="p.0"><path d="m0 0l67.19948 0l0 57.60105l-67.19948 0l0 -57.60105z" clip-rule="nonzero"/></clipPath><g clip-path="url(#p.0)"><path fill="#000000" fill-opacity="0.0" d="m0 0l67.19948 0l0 57.60105l-67.19948 0z" fill-rule="evenodd"/><path fill="#ffffff" d="m12.585386 21.404419l12.61002 0l0 33.021015l-12.61002 0z" fill-rule="evenodd"/><path stroke="#ffffff" stroke-width="4.0" stroke-linejoin="round" stroke-linecap="butt" d="m12.585386 21.404419l12.61002 0l0 33.021015l-12.61002 0z" fill-rule="evenodd"/><path fill="#ffffff" d="m54.614185 54.8375l-12.61002 0l0 -33.4311l12.61002 0z" fill-rule="evenodd"/><path stroke="#ffffff" stroke-width="4.0" stroke-linejoin="round" stroke-linecap="butt" d="m54.614185 54.8375l-12.61002 0l0 -33.4311l12.61002 0z" fill-rule="evenodd"/><path fill="#ffffff" d="m54.614185 21.404419l0 12.587925l-42.0288 0l0 -12.587925z" fill-rule="evenodd"/><path stroke="#ffffff" stroke-width="4.0" stroke-linejoin="round" stroke-linecap="butt" d="m54.614185 21.404419l0 12.587925l-42.0288 0l0 -12.587925z" fill-rule="evenodd"/><path fill="#ffffff" d="m20.465786 43.870617l0 0c0 -4.5668526 2.5097752 -8.785858 6.58177 -11.064152c4.071993 -2.2782898 9.085897 -2.2688026 13.148733 0.02488327c4.0628395 2.293686 6.555691 6.522156 6.5373993 11.088974l-4.2079735 -0.015926361c0.01260376 -3.061554 -1.6814651 -5.89637 -4.442604 -7.4341316c-2.761135 -1.5377617 -6.168703 -1.5442123 -8.936148 -0.016910553c-2.7674465 1.5273018 -4.473175 4.3556786 -4.473175 7.417263z" fill-rule="evenodd"/><path stroke="#ffffff" stroke-width="4.0" stroke-linejoin="round" stroke-linecap="butt" d="m20.465786 43.870617l0 0c0 -4.5668526 2.5097752 -8.785858 6.58177 -11.064152c4.071993 -2.2782898 9.085897 -2.2688026 13.148733 0.02488327c4.0628395 2.293686 6.555691 6.522156 6.5373993 11.088974l-4.2079735 -0.015926361c0.01260376 -3.061554 -1.6814651 -5.89637 -4.442604 -7.4341316c-2.761135 -1.5377617 -6.168703 -1.5442123 -8.936148 -0.016910553c-2.7674465 1.5273018 -4.473175 4.3556786 -4.473175 7.417263z" fill-rule="evenodd"/><path fill="#ffffff" d="m3.3054051 26.76776l30.29438 -24.34973l30.294384 24.34973z" fill-rule="evenodd"/><path stroke="#ffffff" stroke-width="4.0" stroke-linejoin="round" stroke-linecap="butt" d="m3.3054051 26.76776l30.29438 -24.34973l30.294384 24.34973z" fill-rule="evenodd"/></g></svg>