<svg version="1.1" viewBox="0.0 0.0 67.1994750656168 57.6010498687664" fill="none" stroke="none" stroke-linecap="square" stroke-miterlimit="10" xmlns:xlink="http://www.w3.org/1999/xlink" xmlns="http://www.w3.org/2000/svg"><clipPath id="p.0"><path d="m0 0l67.19948 0l0 57.60105l-67.19948 0l0 -57.60105z" clip-rule="nonzero"/></clipPath><g clip-path="url(#p.0)"><path fill="#000000" fill-opacity="0.0" d="m0 0l67.19948 0l0 57.60105l-67.19948 0z" fill-rule="evenodd"/><path fill="#ffffff" d="m14.999247 23.662933l0 0c0.6953049 -1.3903046 2.2521744 -1.7417984 3.4773674 -0.7850857l0 0l0 0c0.5883579 0.4594307 1.0199776 1.165266 1.1999092 1.9622307c0.17992973 0.79696465 0.09343338 1.6197739 -0.24046326 2.2874222l-13.989632 27.973135c-0.6953049 1.3903046 -2.2521749 1.7417984 -3.477367 0.7850876l0 0l0 0c-1.2251921 -0.95671463 -1.6547505 -2.8593483 -0.9594457 -4.249653z" fill-rule="evenodd"/><path fill="#ffffff" d="m19.373045 23.661833l0 0c-0.6953602 -1.390276 -2.2522755 -1.7417488 -3.4774675 -0.7850361l0 0l0 0c-0.5883579 0.4594307 -1.0199671 1.1652603 -1.1998796 1.9622154c-0.17991161 0.7969551 -0.09338856 1.6197529 0.24053478 2.2873878l11.7384 23.4693c0.6953602 1.3902779 2.2522755 1.7417488 3.4774666 0.7850342l0 0l0 0c1.225193 -0.9567108 1.654705 -2.8593254 0.95934486 -4.2496033z" fill-rule="evenodd"/><path fill="#ffffff" d="m29.9984 56.65408l0 0c1.9395199 0 3.5118122 -1.5722923 3.5118122 -3.511814l0 0l0 0c0 -0.93138885 -0.36999512 -1.8246307 -1.0285873 -2.483223c-0.6585903 -0.6585922 -1.5518341 -1.0285873 -2.4832249 -1.0285873l-25.567375 0c-1.9395194 0 -3.5118108 1.5722923 -3.5118108 3.5118103l0 0l0 0c0 1.9395218 1.5722914 3.511814 3.5118108 3.511814z" fill-rule="evenodd"/><path fill="#ffffff" d="m5.233562 53.647064l11.972868 -27.84252l11.97287 27.84252z" fill-rule="evenodd"/><path fill="#ffffff" d="m47.860756 21.148203l0 0c0.6770363 -1.4508438 2.2201538 -1.792736 3.4466476 -0.76363945l0 0l0 0c0.58898544 0.49419022 1.0246887 1.2449112 1.2112656 2.0870113c0.18657303 0.84210014 0.108737946 1.7066021 -0.2163887 2.4033203l-14.217014 30.466028c-0.6770401 1.4508438 -2.2201576 1.7927399 -3.4466515 0.76364136l0 0l0 0c-1.2264938 -1.0290985 -1.6719131 -3.0394897 -0.99487686 -4.4903336z" fill-rule="evenodd"/><path fill="#ffffff" d="m52.165802 21.143232l0 0c-0.6759262 -1.4482746 -2.217083 -1.7903595 -3.442276 -0.7640667l0 0l0 0c-0.588356 0.49284363 -1.023674 1.2417812 -1.210186 2.082058c-0.186512 0.8402748 -0.108940125 1.7030582 0.21564865 2.3985443l14.059814 30.125412c0.6759262 1.4482727 2.2170868 1.7903595 3.442276 0.7640648l0 0l0 0c1.2251892 -1.0262909 1.6704636 -3.0323257 0.99453735 -4.4806023z" fill-rule="evenodd"/><path fill="#ffffff" d="m62.914417 56.65408l0 0c1.9416924 0 3.515751 -1.5740547 3.515751 -3.515751l0 0l0 0c0 -0.9324341 -0.37041473 -1.8266792 -1.0297394 -2.4860077c-0.6593323 -0.6593323 -1.5535774 -1.0297394 -2.4860115 -1.0297394l-25.574535 0c-1.9416962 0 -3.515747 1.5740547 -3.515747 3.515747l0 0l0 0c0 1.9416962 1.5740509 3.515751 3.515747 3.515751z" fill-rule="evenodd"/><path fill="#ffffff" d="m38.061047 53.325836l11.965996 -29.813543l11.965992 29.813543z" fill-rule="evenodd"/><path fill="#ffffff" d="m33.381172 2.4859612l0 0c0.719265 -1.976705 2.4631653 -2.3300288 3.8951073 -0.78917074l0 0l0 0c0.68764496 0.7399461 1.2099113 1.8266728 1.4519119 3.0211127c0.24200058 1.1944399 0.18391037 2.3987508 -0.16149521 3.3479986l-16.85628 46.324917c-0.719265 1.9767036 -2.4631634 2.3300285 -3.8951073 0.7891693l0 0l0 0c-1.431942 -1.5408554 -2.0096827 -4.3924026 -1.2904167 -6.36911z" fill-rule="evenodd"/><path fill="#ffffff" d="m38.15158 2.4859612l0 0c-0.719265 -1.976705 -2.4631653 -2.3300288 -3.8951073 -0.78917074l0 0l0 0c-0.68764496 0.7399461 -1.2099113 1.8266728 -1.4519119 3.0211127c-0.24200058 1.1944399 -0.18391037 2.3987508 0.16149521 3.3479986l16.856277 46.324917c0.719265 1.9767036 2.4631653 2.3300285 3.8951073 0.7891693l0 0l0 0c1.4319458 -1.5408554 2.0096855 -4.3924026 1.2904205 -6.36911z" fill-rule="evenodd"/><path fill="#ffffff" d="m49.1303 56.65468l0 0c3.1397629 0 5.6850395 -2.5452766 5.6850395 -5.6850395l0 0l0 0c0 -1.5077629 -0.59895706 -2.9537773 -1.6651077 -4.019928c-1.0661545 -1.0661507 -2.512165 -1.6651115 -4.019932 -1.6651115l-26.701687 0c-3.139761 0 -5.6850395 2.5452805 -5.6850395 5.6850395l0 0l0 0c0 3.1397629 2.5452785 5.6850395 5.6850395 5.6850395z" fill-rule="evenodd"/><path fill="#ffffff" d="m21.811028 51.01943l13.970413 -44.63952l13.970413 44.63952z" fill-rule="evenodd"/></g></svg>