<svg version="1.1" viewBox="0.0 0.0 65.28083989501312 64.32020997375328" fill="none" stroke="none" stroke-linecap="square" stroke-miterlimit="10" xmlns:xlink="http://www.w3.org/1999/xlink" xmlns="http://www.w3.org/2000/svg"><clipPath id="p.0"><path d="m0 0l65.28084 0l0 64.32021l-65.28084 0l0 -64.32021z" clip-rule="nonzero"/></clipPath><g clip-path="url(#p.0)"><path fill="#000000" fill-opacity="0.0" d="m0 0l65.28084 0l0 64.32021l-65.28084 0z" fill-rule="evenodd"/><path fill="#ffffff" d="m9.937171 43.59417l0 0c-9.373818 -9.373821 -9.373818 -24.571783 0 -33.945602l0 0c4.5014668 -4.5014668 10.606765 -7.030364 16.972801 -7.030364c6.3660336 0 12.471334 2.5288973 16.9728 7.030364l0 0c9.373817 9.373818 9.373817 24.571781 0 33.945602l0 0c-9.373817 9.373817 -24.571781 9.373817 -33.9456 0zm4.2493105 -4.2493134l0 0c7.026989 7.026989 18.41999 7.026989 25.44698 0c7.026989 -7.026989 7.026989 -18.419989 0 -25.446978l0 0c-7.026989 -7.02699 -18.41999 -7.02699 -25.44698 0l0 0c-7.02699 7.026989 -7.02699 18.419989 0 25.446978z" fill-rule="evenodd"/><path stroke="#ffffff" stroke-width="3.0" stroke-linejoin="round" stroke-linecap="butt" d="m9.937171 43.59417l0 0c-9.373818 -9.373821 -9.373818 -24.571783 0 -33.945602l0 0c4.5014668 -4.5014668 10.606765 -7.030364 16.972801 -7.030364c6.3660336 0 12.471334 2.5288973 16.9728 7.030364l0 0c9.373817 9.373818 9.373817 24.571781 0 33.945602l0 0c-9.373817 9.373817 -24.571781 9.373817 -33.9456 0zm4.2493105 -4.2493134l0 0c7.026989 7.026989 18.41999 7.026989 25.44698 0c7.026989 -7.026989 7.026989 -18.419989 0 -25.446978l0 0c-7.026989 -7.02699 -18.41999 -7.02699 -25.44698 0l0 0c-7.02699 7.026989 -7.02699 18.419989 0 25.446978z" fill-rule="evenodd"/><path fill="#ffffff" d="m60.85557 56.32377l0 0c1.1717262 1.1717262 1.1717262 3.0714722 0 4.2431984l0 0l0 0c-0.5626831 0.5626831 -1.3258476 0.8787956 -2.121601 0.8787956c-0.7957535 0 -1.558918 -0.31611252 -2.121601 -0.8787956l-15.352364 -15.352364c-1.1717262 -1.1717262 -1.1717262 -3.0714722 0 -4.243202l0 0l0 0c1.1717262 -1.1717262 3.0714722 -1.1717262 4.2431984 0z" fill-rule="evenodd"/><path stroke="#ffffff" stroke-width="4.0" stroke-linejoin="round" stroke-linecap="butt" d="m60.85557 56.32377l0 0c1.1717262 1.1717262 1.1717262 3.0714722 0 4.2431984l0 0l0 0c-0.5626831 0.5626831 -1.3258476 0.8787956 -2.121601 0.8787956c-0.7957535 0 -1.558918 -0.31611252 -2.121601 -0.8787956l-15.352364 -15.352364c-1.1717262 -1.1717262 -1.1717262 -3.0714722 0 -4.243202l0 0l0 0c1.1717262 -1.1717262 3.0714722 -1.1717262 4.2431984 0z" fill-rule="evenodd"/></g></svg>